<svg version="1.1" xmlns="http://www.w3.org/2000/svg" viewBox="-266.23999710083007 -1011.7120239257813 6199.364866772383 2312.192041015625"><desc>Created with Snap</desc><defs><linearGradient x1="-266.23999710083007" y1="-1011.7120239257813" x2="5933.124869671553" y2="-1011.7120239257813" gradientUnits="userSpaceOnUse" id="linearGradientSktbpdt74l5y"><stop offset="0%" stop-color="#6252a2"></stop><stop offset="100%" stop-color="#2fbdb6"></stop></linearGradient></defs><g><rect x="-266.23999710083007" y="-1011.7120239257813" width="6199.364866772383" height="2312.192041015625" fill="url('#linearGradientSktbpdt74l5y')"></rect><g transform="matrix(15.156,0,0,15.156,3687.4242,-825.4442)"><title>90 SEO and marketing 4 final</title><path d="M121.9,64.3C119.1,45.1,107,28.5,89.7,20c-11.9-14.2-33-16.1-47.2-4.2c-1.5,1.3-2.9,2.7-4.2,4.2C21,28.5,8.9,45.1,6.1,64.3  C2.5,65.4,0,68.7,0,72.5v15.3c0,4.8,3.9,8.6,8.6,8.6c0,0,2.5,0,2.5,0c0.8,4.2,4.4,7.3,8.7,7.3H25c2.2,0,4-1.8,4-4V60.6  c0-2.2-1.8-4-4-4h-5.1c-4.3,0-7.9,3.1-8.7,7.3c-0.1,0-0.9,0-0.9,0C12.7,49.1,21,35.9,33.4,27.5c-2.4,4.9-3.6,10.3-3.6,15.8  c0,7.3,2.2,14.4,6.5,20.3c0.8,1.2,1.7,2.4,2.6,3.6c4.5,6.2,8.7,12,10.3,19.4c0.7,4.4,1.1,8.8,1.3,13.3H50c-1.1,0-2,0.9-2,2  s0.9,2,2,2h28c1.1,0,2-0.9,2-2s-0.9-2-2-2h-0.5c0.2-5,0.8-11.2,0.9-12c1-7.7,5.8-14.8,10.5-21.7c1.3-1.9,2.5-3.6,3.6-5.4  c2.6-4.3,5.7-10.3,5.7-17.5c0-5.5-1.2-10.9-3.6-15.8c12.4,8.4,20.7,21.6,23.2,36.4c0,0-0.9,0-0.9,0c-0.8-4.2-4.4-7.3-8.7-7.3H103  c-2.2,0-4,1.8-4,4v39.1c0,2.2,1.8,4,4,4h5.1c4.3,0,7.9-3.1,8.7-7.3c0.1,0,2.5,0,2.5,0c4.8,0,8.6-3.9,8.6-8.6V72.5  C128,68.7,125.5,65.4,121.9,64.3z M15,65.5c0-2.7,2.2-4.9,4.9-4.9H25l0,39.1h-5.1c-2.7,0-4.9-2.2-4.9-4.9V65.5z M11,67.9v24.6H8.6  c-2.6,0-4.6-2.1-4.6-4.6V72.5c0-2.6,2.1-4.6,4.6-4.6H11z M66,100h-4V73.9h4V100z M89.2,58.7c-1.1,1.7-2.3,3.5-3.5,5.3  c-4.9,7.3-10,14.8-11.2,23.4c-0.1,0.9-0.7,7.4-0.9,12.5H70V73.9h1c1.1,0,2-0.9,2-2s-0.9-2-2-2H57c-1.1,0-2,0.9-2,2s0.9,2,2,2h1V100  h-3.6c-0.2-4.7-0.7-9.5-1.4-14.1c-1.8-8.3-6.5-14.7-11-20.9c-0.8-1.2-1.7-2.3-2.5-3.5c-3.7-5.3-5.7-11.6-5.7-18  C33.8,26.1,47.3,12,64,12s30.2,14.1,30.2,31.3C94.2,49.6,91.5,54.9,89.2,58.7z M113,94.8c0,2.7-2.2,4.9-4.9,4.9H103V60.6h5.1  c2.7,0,4.9,2.2,4.9,4.9V94.8z M124,87.8c0,2.6-2.1,4.6-4.6,4.6H117V67.9h2.4c2.6,0,4.6,2.1,4.6,4.6V87.8z" fill="#ffffff" style=""></path><path d="M76.6,49.3l-0.8,0.1c-0.3-1.1-0.9-2.2-1.6-3.1l0.5-0.6c0.5-0.6,0.4-1.6-0.2-2.1c0,0,0,0,0,0l0,0c-0.6-0.5-1.5-0.4-2.1,0.2  L72,44.4c-1-0.6-2.1-0.9-3.3-1l-0.1-0.8c-0.1-0.8-0.8-1.4-1.6-1.3l0,0c-0.8,0.1-1.4,0.8-1.3,1.6l0.1,0.7c-1.1,0.3-2.2,0.9-3.1,1.6  l-0.6-0.5c-0.6-0.5-1.5-0.4-2.1,0.2c-0.5,0.6-0.4,1.6,0.2,2.1c0,0,0,0,0,0l0.6,0.5c-0.6,1-0.9,2.1-1,3.3L59,50.8  c-0.8,0.1-1.4,0.8-1.3,1.6c0,0,0,0,0,0l0,0c0.1,0.8,0.8,1.4,1.6,1.3l0.7-0.1c0.3,1.1,0.9,2.2,1.6,3.1l-0.5,0.6  c-0.5,0.6-0.4,1.6,0.2,2.1l0,0c0.6,0.5,1.5,0.4,2.1-0.2l0.5-0.6c1,0.6,2.1,0.9,3.3,1l0.1,0.8c0.1,0.8,0.8,1.4,1.6,1.3l0,0  c0.8-0.1,1.4-0.8,1.3-1.6c0,0,0,0,0,0l-0.1-0.7c1.1-0.3,2.2-0.9,3.1-1.6l0.6,0.5c0.6,0.5,1.5,0.4,2.1-0.2c0.5-0.6,0.4-1.6-0.2-2.1  c0,0,0,0,0,0l-0.6-0.5c0.6-1,0.9-2.1,1-3.3l0.7-0.1c0.8-0.1,1.4-0.8,1.3-1.6c0,0,0,0,0,0l0,0C78.1,49.8,77.4,49.2,76.6,49.3z   M70.9,54.9c-1.9,1.6-4.7,1.4-6.4-0.5c-1.6-1.9-1.4-4.7,0.5-6.4c1.5-1.3,3.6-1.5,5.3-0.5c2.1,1.3,2.8,4.1,1.5,6.2  C71.6,54.3,71.3,54.6,70.9,54.9L70.9,54.9z" fill="#ffffff" style=""></path><path d="M82.3,34.6c-0.1-0.6-0.7-1-1.3-0.8l-0.5,0.1c-0.3-0.8-0.8-1.5-1.4-2.1l0.3-0.5c0.3-0.5,0.2-1.2-0.3-1.5l0,0  c-0.5-0.3-1.2-0.2-1.5,0.3c0,0,0,0,0,0l-0.3,0.5c-0.8-0.3-1.6-0.5-2.5-0.5l-0.1-0.5c-0.1-0.6-0.7-1-1.3-0.8l0,0  c-0.6,0.1-1,0.7-0.8,1.3l0.1,0.5c-0.8,0.3-1.5,0.8-2.1,1.4l-0.5-0.3c-0.5-0.3-1.2-0.2-1.5,0.3c-0.3,0.5-0.2,1.2,0.3,1.5c0,0,0,0,0,0  l0.5,0.3c-0.3,0.8-0.5,1.6-0.5,2.5l-0.5,0.1c-0.6,0.1-1,0.7-0.8,1.3l0,0c0.1,0.6,0.7,1,1.3,0.8l0.5-0.1c0.3,0.8,0.8,1.5,1.4,2.1  l-0.3,0.5c-0.3,0.5-0.2,1.2,0.3,1.5c0,0,0,0,0,0l0,0c0.5,0.3,1.2,0.2,1.5-0.3l0.3-0.5c0.8,0.3,1.6,0.5,2.5,0.5l0.1,0.5  c0.1,0.6,0.7,1,1.3,0.8l0,0c0.6-0.1,1-0.7,0.8-1.3c0,0,0,0,0,0l-0.1-0.5c0.8-0.3,1.5-0.8,2.1-1.4l0.5,0.3c0.5,0.3,1.2,0.2,1.5-0.3  s0.2-1.2-0.3-1.5c0,0,0,0,0,0l-0.5-0.3c0.3-0.8,0.5-1.6,0.5-2.5l0.5-0.1C82.1,35.7,82.5,35.2,82.3,34.6  C82.3,34.6,82.3,34.6,82.3,34.6L82.3,34.6z M77.4,38.3c-1.2,1.4-3.3,1.5-4.7,0.2s-1.5-3.3-0.2-4.7c1-1.1,2.5-1.4,3.8-0.8  c1.7,0.8,2.4,2.7,1.7,4.4C77.8,37.8,77.6,38.1,77.4,38.3z" fill="#ffffff" style=""></path><path d="M57.7,44.6c1.4-0.3,2.6-0.9,3.7-1.8l0.7,0.6c0.7,0.6,1.8,0.6,2.5-0.2c0.6-0.7,0.6-1.8-0.2-2.5l-0.7-0.6  c0.7-1.2,1.2-2.5,1.3-3.9l0.9-0.1c1-0.1,1.7-0.9,1.6-1.9c0,0,0,0,0,0l0,0c-0.1-1-0.9-1.7-1.9-1.6l-0.9,0.1c-0.3-1.4-1-2.6-1.8-3.7  l0.6-0.7c0.6-0.7,0.6-1.8-0.2-2.5c0,0,0,0,0,0l0,0c-0.7-0.6-1.8-0.6-2.5,0.2l-0.6,0.7c-1.2-0.7-2.5-1.2-3.9-1.4l-0.1-0.9  c-0.1-1-0.9-1.7-1.9-1.6l0,0c-1,0.1-1.7,0.9-1.6,1.9l0.1,0.9c-1.4,0.3-2.6,1-3.7,1.8l-0.7-0.6c-0.7-0.6-1.8-0.6-2.5,0.2  s-0.6,1.8,0.2,2.5L47,30c-0.7,1.2-1.2,2.5-1.3,3.9l-0.9,0.1c-1,0.1-1.7,0.9-1.6,1.9c0,0,0,0,0,0l0,0c0.1,1,0.9,1.7,1.9,1.6l0.9-0.1  c0.3,1.4,1,2.6,1.8,3.7l-0.6,0.7c-0.6,0.7-0.6,1.8,0.2,2.5c0,0,0,0,0,0l0,0c0.7,0.6,1.8,0.6,2.5-0.2l0.6-0.7  c1.2,0.7,2.5,1.2,3.9,1.3l0.1,0.9c0.1,1,0.9,1.7,1.9,1.6l0,0c1-0.1,1.7-0.9,1.6-1.9c0,0,0,0,0,0L57.7,44.6z M52.5,39.6  c-2.5-1.6-3.3-4.9-1.7-7.4c1.6-2.5,4.9-3.3,7.4-1.7c2.5,1.6,3.3,4.9,1.7,7.4c-0.3,0.5-0.7,0.9-1.1,1.3C57,40.7,54.5,40.9,52.5,39.6z  " fill="#ffffff" style=""></path><path d="M77,108H51c-1.1,0-2,0.9-2,2s0.9,2,2,2h26c1.1,0,2-0.9,2-2S78.1,108,77,108z" fill="#ffffff" style=""></path><path d="M71,116H57c-1.1,0-2,0.9-2,2s0.9,2,2,2h14c1.1,0,2-0.9,2-2S72.1,116,71,116z" fill="#ffffff" style=""></path><desc>Created with Snap</desc><defs></defs></g><g><g transform="matrix(1.024,0,0,-1.024,0,0)"><path d="M609 650L607 446L529 439L523 571L380 571L329 79L438 79L430 0L127 0L135 79L242 79L293 571L149 571L116 439L40 446L79 650L609 650ZM828 59Q875 59 900 84Q926 110 939 144L1007 129Q994 73 944 31Q895 -10 815 -10Q734 -10 685 39Q637 88 637 186Q637 298 699 377Q761 456 867 456Q931 456 974 425Q1017 394 1017 341Q1017 292 980 257Q944 222 857 203Q829 197 796 191Q763 186 728 181Q729 124 752 91Q775 59 828 59ZM818 252Q889 268 908 290Q927 312 927 335Q927 366 907 378Q888 391 858 391Q796 391 766 343Q737 296 730 238Q758 242 779 245Q801 249 818 252ZM1435 447L1517 447Q1506 410 1497 374Q1488 339 1484 302L1455 69L1519 69L1514 19L1490 0L1376 0L1377 91Q1355 50 1319 20Q1283 -10 1226 -10Q1152 -10 1114 42Q1077 95 1077 180Q1077 238 1097 302Q1117 366 1162 411Q1208 456 1284 456Q1385 456 1415 372Q1422 405 1435 447ZM1295 387Q1246 387 1218 356Q1191 325 1179 279Q1168 234 1168 191Q1168 59 1255 59Q1306 59 1340 102Q1374 145 1385 190L1396 271Q1397 323 1367 355Q1338 387 1295 387ZM1808 387Q1740 387 1708 328Q1677 270 1677 193Q1677 132 1698 95Q1720 59 1773 59Q1855 59 1888 170L1956 155Q1942 95 1896 42Q1850 -10 1761 -10Q1678 -10 1632 42Q1586 95 1586 188Q1586 249 1608 311Q1630 373 1679 414Q1728 456 1809 456Q1895 456 1956 412L1961 297L1890 289L1882 366Q1849 387 1808 387ZM2039 619L2045 667L2070 688L2202 688L2163 367Q2186 408 2222 432Q2258 456 2308 456Q2371 456 2409 416Q2448 376 2437 291L2410 69L2480 69L2474 19L2450 0L2318 0L2350 261Q2358 329 2336 358Q2315 387 2272 387Q2221 387 2190 353Q2160 319 2151 274L2151 273L2118 0L2034 0L2109 619L2039 619ZM2727 59Q2774 59 2799 84Q2825 110 2838 144L2906 129Q2893 73 2843 31Q2794 -10 2714 -10Q2633 -10 2584 39Q2536 88 2536 186Q2536 298 2598 377Q2660 456 2766 456Q2830 456 2873 425Q2916 394 2916 341Q2916 292 2879 257Q2843 222 2756 203Q2728 197 2695 191Q2662 186 2627 181Q2628 124 2651 91Q2674 59 2727 59ZM2717 252Q2788 268 2807 290Q2826 312 2826 335Q2826 366 2806 378Q2787 391 2757 391Q2695 391 2665 343Q2636 296 2629 238Q2657 242 2678 245Q2700 249 2717 252ZM3016 447L3132 447L3133 340Q3150 386 3178 421Q3207 457 3248 457Q3275 457 3301 439L3286 350Q3257 365 3233 365Q3195 365 3168 333Q3141 301 3130 257L3106 69L3196 69L3190 21L3166 0L2946 0L2953 47L2976 69L3020 69L3058 378L2986 378L2992 425L3016 447Z" fill="#ffffff" style=""></path></g></g><g transform="matrix(1,0,0,1,1108.9919,983.04)"><g transform="matrix(1.024,0,0,-1.024,0,0)"><path d="M540 650L540 459L462 451L456 571L234 571L210 339L493 339L485 261L202 261L182 79L292 79L284 0L11 0L19 79L95 79L147 571L71 571L79 650L540 650ZM570 191Q570 295 628 375Q687 456 804 456Q902 456 944 397Q987 338 987 252Q987 140 924 65Q862 -10 753 -10Q662 -10 616 45Q570 100 570 191ZM662 197Q662 136 682 97Q703 59 761 59Q833 59 864 115Q896 172 896 249Q896 314 873 350Q851 387 794 387Q728 387 695 335Q662 284 662 197ZM1092 447L1208 447L1209 340Q1226 386 1254 421Q1283 457 1324 457Q1351 457 1377 439L1362 350Q1333 365 1309 365Q1271 365 1244 333Q1217 301 1206 257L1182 69L1272 69L1266 21L1242 0L1022 0L1029 47L1052 69L1096 69L1134 378L1062 378L1068 425L1092 447ZM1620 387Q1552 387 1520 328Q1489 270 1489 193Q1489 132 1510 95Q1532 59 1585 59Q1667 59 1700 170L1768 155Q1754 95 1708 42Q1662 -10 1573 -10Q1490 -10 1444 42Q1398 95 1398 188Q1398 249 1420 311Q1442 373 1491 414Q1540 456 1621 456Q1707 456 1768 412L1773 297L1702 289L1694 366Q1661 387 1620 387ZM2029 59Q2076 59 2101 84Q2127 110 2140 144L2208 129Q2195 73 2145 31Q2096 -10 2016 -10Q1935 -10 1886 39Q1838 88 1838 186Q1838 298 1900 377Q1962 456 2068 456Q2132 456 2175 425Q2218 394 2218 341Q2218 292 2181 257Q2145 222 2058 203Q2030 197 1997 191Q1964 186 1929 181Q1930 124 1953 91Q1976 59 2029 59ZM2019 252Q2090 268 2109 290Q2128 312 2128 335Q2128 366 2108 378Q2089 391 2059 391Q1997 391 1967 343Q1938 296 1931 238Q1959 242 1980 245Q2002 249 2019 252Z" fill="#ffffff" style=""></path></g></g></g></svg>